<mxfile host="app.diagrams.net" agent="Mozilla/5.0 (Macintosh; Intel Mac OS X 10_15_7) AppleWebKit/537.36 (KHTML, like Gecko) Chrome/139.0.0.0 Safari/537.36" version="28.2.3">
  <diagram name="Page-1" id="_e-w09hOYbzFDcze72WV">
    <mxGraphModel dx="1232" dy="816" grid="1" gridSize="10" guides="1" tooltips="1" connect="1" arrows="1" fold="1" page="1" pageScale="1" pageWidth="827" pageHeight="1169" math="0" shadow="0">
      <root>
        <mxCell id="0" />
        <mxCell id="1" parent="0" />
        <mxCell id="cGl2F8qCMzr2VDQTmDil-1" value="" style="rounded=0;whiteSpace=wrap;html=1;dashed=1;dashPattern=5 5;fillColor=none;strokeColor=#000000;" vertex="1" parent="1">
          <mxGeometry x="30" y="30" width="360" height="370" as="geometry" />
        </mxCell>
        <mxCell id="cGl2F8qCMzr2VDQTmDil-2" value="" style="rounded=0;whiteSpace=wrap;html=1;dashed=1;dashPattern=5 5;fillColor=none;strokeColor=#000000;" vertex="1" parent="1">
          <mxGeometry x="430" y="30" width="360" height="370" as="geometry" />
        </mxCell>
        <mxCell id="cGl2F8qCMzr2VDQTmDil-3" value="Zorgaanbieder" style="text;html=1;strokeColor=none;fillColor=none;align=center;verticalAlign=middle;whiteSpace=wrap;rounded=0;fontSize=20;fontStyle=0;" vertex="1" parent="1">
          <mxGeometry x="550" y="50" width="120" height="30" as="geometry" />
        </mxCell>
        <mxCell id="cGl2F8qCMzr2VDQTmDil-4" value="EPD" style="rounded=0;whiteSpace=wrap;html=1;fillColor=#90EE90;strokeColor=#000000;fontSize=18;" vertex="1" parent="1">
          <mxGeometry x="250" y="180" width="120" height="50" as="geometry" />
        </mxCell>
        <mxCell id="cGl2F8qCMzr2VDQTmDil-5" value="DVA" style="rounded=1;whiteSpace=wrap;html=1;fillColor=#B3D9FF;strokeColor=#000000;fontSize=18;arcSize=15;" vertex="1" parent="1">
          <mxGeometry x="450" y="180" width="120" height="50" as="geometry" />
        </mxCell>
        <mxCell id="cGl2F8qCMzr2VDQTmDil-6" value="PGO" style="rounded=1;whiteSpace=wrap;html=1;fillColor=#B3D9FF;strokeColor=#000000;fontSize=18;arcSize=15;" vertex="1" parent="1">
          <mxGeometry x="630" y="180" width="120" height="50" as="geometry" />
        </mxCell>
        <mxCell id="cGl2F8qCMzr2VDQTmDil-7" value="Module" style="rounded=0;whiteSpace=wrap;html=1;fillColor=#FFD700;strokeColor=#000000;fontSize=18;" vertex="1" parent="1">
          <mxGeometry x="540" y="310" width="120" height="60" as="geometry" />
        </mxCell>
        <mxCell id="cGl2F8qCMzr2VDQTmDil-8" value="facade" style="edgeStyle=orthogonalEdgeStyle;rounded=0;orthogonalLoop=1;jettySize=auto;html=1;exitX=1;exitY=0.5;exitDx=0;exitDy=0;entryX=0;entryY=0.5;entryDx=0;entryDy=0;strokeColor=#000000;fontSize=12;" edge="1" parent="1" source="cGl2F8qCMzr2VDQTmDil-4" target="cGl2F8qCMzr2VDQTmDil-5">
          <mxGeometry relative="1" as="geometry" />
        </mxCell>
        <mxCell id="cGl2F8qCMzr2VDQTmDil-9" value="taken" style="edgeStyle=orthogonalEdgeStyle;rounded=0;orthogonalLoop=1;jettySize=auto;html=1;exitX=1;exitY=0.5;exitDx=0;exitDy=0;entryX=0;entryY=0.5;entryDx=0;entryDy=0;strokeColor=#000000;fontSize=12;" edge="1" parent="1" source="cGl2F8qCMzr2VDQTmDil-5" target="cGl2F8qCMzr2VDQTmDil-6">
          <mxGeometry relative="1" as="geometry" />
        </mxCell>
        <mxCell id="cGl2F8qCMzr2VDQTmDil-10" value="launch" style="rounded=0;orthogonalLoop=1;jettySize=auto;html=1;exitX=0.25;exitY=1;exitDx=0;exitDy=0;strokeColor=#000000;strokeWidth=2;fontSize=11;entryX=0.75;entryY=0;entryDx=0;entryDy=0;" edge="1" parent="1" source="cGl2F8qCMzr2VDQTmDil-6" target="cGl2F8qCMzr2VDQTmDil-7">
          <mxGeometry x="0.1" y="10" relative="1" as="geometry">
            <mxPoint as="offset" />
            <mxPoint x="630" y="300" as="targetPoint" />
          </mxGeometry>
        </mxCell>
        <mxCell id="cGl2F8qCMzr2VDQTmDil-11" value="launch" style="rounded=0;orthogonalLoop=1;jettySize=auto;html=1;exitX=0.25;exitY=1;exitDx=0;exitDy=0;entryX=0.008;entryY=0.367;entryDx=0;entryDy=0;strokeColor=#000000;dashed=1;dashPattern=3 3;fontSize=11;entryPerimeter=0;edgeStyle=orthogonalEdgeStyle;" edge="1" parent="1" source="cGl2F8qCMzr2VDQTmDil-5" target="cGl2F8qCMzr2VDQTmDil-7">
          <mxGeometry x="-0.1" y="5" relative="1" as="geometry">
            <mxPoint as="offset" />
          </mxGeometry>
        </mxCell>
        <mxCell id="cGl2F8qCMzr2VDQTmDil-12" value="Maakt taak" style="shape=callout;whiteSpace=wrap;html=1;perimeter=calloutPerimeter;fillColor=#f5f5f5;strokeColor=#666666;fontColor=#333333;" vertex="1" parent="1">
          <mxGeometry x="260" y="110" width="120" height="80" as="geometry" />
        </mxCell>
      </root>
    </mxGraphModel>
  </diagram>
</mxfile>
